<svg xmlns="http://www.w3.org/2000/svg" width="1200" height="420" viewBox="0 0 1200 420"><rect width="1200" height="420" fill="#ffffff"/><text x="60" y="70" font-family="Arial, sans-serif" font-size="34" font-weight="700" fill="#111">AI Infrastructure: HBM & Advanced Packaging</text><text x="60" y="110" font-family="Arial, sans-serif" font-size="19" fill="#555">2026-08-28 intelligence signal — simplified supply-chain view</text><g font-family="Arial, sans-serif"><rect x="60" y="170" width="220" height="110" rx="16" fill="#eef2ff" stroke="#4f46e5" stroke-width="2"/><text x="170" y="215" text-anchor="middle" font-size="22" font-weight="700" fill="#111">HBM</text><text x="170" y="247" text-anchor="middle" font-size="16" fill="#444">high-bandwidth memory</text><rect x="340" y="170" width="220" height="110" rx="16" fill="#f0fdf4" stroke="#16a34a" stroke-width="2"/><text x="450" y="215" text-anchor="middle" font-size="22" font-weight="700" fill="#111">Packaging</text><text x="450" y="247" text-anchor="middle" font-size="16" fill="#444">stacking / integration</text><rect x="620" y="170" width="220" height="110" rx="16" fill="#fff7ed" stroke="#ea580c" stroke-width="2"/><text x="730" y="215" text-anchor="middle" font-size="22" font-weight="700" fill="#111">AI Accelerators</text><text x="730" y="247" text-anchor="middle" font-size="16" fill="#444">GPU / custom silicon</text><rect x="900" y="170" width="240" height="110" rx="16" fill="#fdf2f8" stroke="#db2777" stroke-width="2"/><text x="1020" y="215" text-anchor="middle" font-size="22" font-weight="700" fill="#111">AI Factories</text><text x="1020" y="247" text-anchor="middle" font-size="16" fill="#444">data center + power</text><path d="M280 225 H340" stroke="#333" stroke-width="3" marker-end="url(#a)"/><path d="M560 225 H620" stroke="#333" stroke-width="3" marker-end="url(#a)"/><path d="M840 225 H900" stroke="#333" stroke-width="3" marker-end="url(#a)"/><text x="60" y="350" font-size="18" fill="#333">Signal: AI supply-chain competition is broadening from compute chips to memory, packaging and physical infrastructure.</text></g><defs><marker id="a" markerWidth="10" markerHeight="10" refX="9" refY="3" orient="auto"><path d="M0,0 L0,6 L9,3 z" fill="#333"/></marker></defs></svg>