<svg xmlns="http://www.w3.org/2000/svg" viewBox="0 0 1000 720" role="img" aria-labelledby="title desc">
<title id="title">2026년 10월 6일: 확인된 변화와 다음 검증</title>
<desc id="desc">계약 공개와 종결, 매출과 수익성, 도입 발표와 효과를 구분하는 다섯 사건의 증거 단계 비교.</desc>
<rect width="1000" height="720" fill="#f8fafc"/>
<g font-family="'Noto Sans KR','Apple SD Gothic Neo','Malgun Gothic',sans-serif">
<text x="38" y="62" font-size="32" font-weight="700" fill="#0f172a">새 발전이 증명하는 범위</text>
<text x="38" y="99" font-size="20" fill="#475569">2026-10-06 · 컷오프 09:02:20 KST · 지난 24시간</text>
<text x="38" y="152" font-size="21" font-weight="700" fill="#334155">사건</text>
<text x="280" y="152" font-size="21" font-weight="700" fill="#166534">확인된 변화</text>
<text x="640" y="152" font-size="21" font-weight="700" fill="#475569">다음 검증</text>
<rect x="28" y="178" width="944" height="72" rx="10" fill="#eef2f6"/>
<rect x="260" y="186" width="350" height="56" rx="8" fill="#dcfce7"/>
<text x="42" y="223" font-size="23" font-weight="600" fill="#0f172a">Schneider–PTC</text>
<text x="280" y="223" font-size="22" fill="#14532d">확정 인수계약 공개</text>
<text x="630" y="223" font-size="21" fill="#334155">승인 · 조달 · 통합</text>
<rect x="28" y="266" width="944" height="72" rx="10" fill="#ffffff"/>
<rect x="260" y="274" width="350" height="56" rx="8" fill="#dcfce7"/>
<text x="42" y="311" font-size="23" font-weight="600" fill="#0f172a">Foxconn</text>
<text x="280" y="311" font-size="22" fill="#14532d">9월 · 분기 매출 공개</text>
<text x="630" y="311" font-size="21" fill="#334155">AI 기여 · 이익 · 현금</text>
<rect x="28" y="354" width="944" height="72" rx="10" fill="#eef2f6"/>
<rect x="260" y="362" width="350" height="56" rx="8" fill="#dcfce7"/>
<text x="42" y="399" font-size="23" font-weight="600" fill="#0f172a">textGrain</text>
<text x="280" y="399" font-size="22" fill="#14532d">단계 도입 발표</text>
<text x="630" y="399" font-size="21" fill="#334155">독립 평가 · 오탐 · 편집</text>
<rect x="28" y="442" width="944" height="72" rx="10" fill="#ffffff"/>
<rect x="260" y="450" width="350" height="56" rx="8" fill="#dcfce7"/>
<text x="42" y="487" font-size="23" font-weight="600" fill="#0f172a">광유전학</text>
<text x="280" y="487" font-size="22" fill="#14532d">2026 노벨상 선정</text>
<text x="630" y="487" font-size="21" fill="#334155">새 연구 · 임상 근거</text>
<rect x="28" y="530" width="944" height="72" rx="10" fill="#eef2f6"/>
<rect x="260" y="538" width="350" height="56" rx="8" fill="#dcfce7"/>
<text x="42" y="575" font-size="23" font-weight="600" fill="#0f172a">SafeWorld</text>
<text x="280" y="575" font-size="22" fill="#14532d">시드 자금 공개</text>
<text x="630" y="575" font-size="21" fill="#334155">실기기 검증 · 유료 고객</text>
<text x="38" y="651" font-size="20" fill="#475569">자금 · 계획 · 수상은 안전성이나 수익성을 보장하지 않는다.</text>
<text x="38" y="687" font-size="17" fill="#64748b">자체 제작 · CC BY 4.0 · 근거와 접근 제한은 당일 sources 원장 참조</text>
</g></svg>
