<svg xmlns="http://www.w3.org/2000/svg" width="1120" height="455" viewBox="0 0 1120 455" role="img" aria-label="2026-10-09 검증 단계: Google 발표와 프리뷰, NASA 서명, Upscale 제품 발표, Claude 베타, Freddie 공식 조사">
<rect width="1120" height="455" rx="22" fill="#0e1b2d"/>
<text x="50" y="63" font-family="Arial, sans-serif" font-size="30" font-weight="700" fill="#f4f7fc">2026-10-09  |  Evidence stages</text>
<text x="50" y="97" font-family="Arial, sans-serif" font-size="17" fill="#a9bfd9">발표 ≠ 정식 제공 ≠ 실제 성과   ·   사건 단계 비교 (성능 순위가 아님)</text>
<g font-family="Arial, sans-serif" font-size="19" fill="#f4f7fc">
<rect x="45" y="125" width="1030" height="49" rx="9" fill="#213751"/><text x="66" y="157">Google Gemini agent</text><rect x="620" y="133" width="430" height="33" rx="7" fill="#396a94"/><text x="640" y="155" font-size="16">발표 · 기업 프리뷰</text>
<rect x="45" y="183" width="1030" height="49" rx="9" fill="#213751"/><text x="66" y="215">NASA–DOE MOU</text><rect x="620" y="191" width="430" height="33" rx="7" fill="#347d76"/><text x="640" y="213" font-size="16">서명 완료 · 11/1 효력 예정</text>
<rect x="45" y="241" width="1030" height="49" rx="9" fill="#213751"/><text x="66" y="273">Upscale Token Fabric</text><rect x="620" y="249" width="430" height="33" rx="7" fill="#79663c"/><text x="640" y="271" font-size="16">제품 공개 · GA 2027 목표</text>
<rect x="45" y="299" width="1030" height="49" rx="9" fill="#213751"/><text x="66" y="331">Claude Dashboards / Motion</text><rect x="620" y="307" width="430" height="33" rx="7" fill="#71549a"/><text x="640" y="329" font-size="16">베타 제공 · 기존 3종 GA</text>
<rect x="45" y="357" width="1030" height="49" rx="9" fill="#213751"/><text x="66" y="389">Freddie Mac PMMS</text><rect x="620" y="365" width="430" height="33" rx="7" fill="#477b54"/><text x="640" y="387" font-size="16">공식 주간 설문 · 30년 7.40%</text>
</g>
<text x="48" y="437" font-family="Arial, sans-serif" font-size="13" fill="#a9bfd9">Source: 각 기관 2026-10-08 원문 · 자체 설명 도표 · CC BY 4.0 · 실측 그래프 아님</text>
</svg>